<?xml version="1.0" encoding="iso-8859-1"?>
<!-- Generator: Adobe Illustrator 18.1.1, SVG Export Plug-In . SVG Version: 6.00 Build 0)  -->
<svg version="1.1" id="Capa_1" xmlns="http://www.w3.org/2000/svg" xmlns:xlink="http://www.w3.org/1999/xlink" x="0px" y="0px"
	 viewBox="0 0 791.734 791.734" style="enable-background:new 0 0 791.734 791.734;" xml:space="preserve">
<g>
	<path d="M616.835,270.333h-40.306c-3.818,0-7.635,0.977-11.541,0.977v-14.382c0-25.924-21.13-47.941-47.941-47.941h-40.306
		c-11.541,0-22.017,3.818-29.741,10.565c-8.612-6.747-18.2-10.565-29.741-10.565h-40.306c-3.818,0-8.612,0.977-12.429,1.953V47.941
		C364.525,22.017,343.395,0,316.584,0h-40.306c-25.924,0-47.941,21.129-47.941,47.941v72.799c0,1.953,0,2.841,0,4.794v138.141
		c-4.794-3.818-8.612-7.635-12.429-10.565l-1.953-1.953c-0.977-0.977-1.953-1.953-2.841-1.953c-1.953-0.977-2.841-1.953-3.817-1.953
		l0,0l0,0c-21.129-13.406-43.147-15.359-53.711-15.359c-4.794,0-8.612,0-8.612,0c-8.612,0.977-15.359,8.612-15.359,17.223v271.309
		c0,0.977,0,1.953,0,2.841v2.841c0,146.663,118.875,265.628,265.628,265.628c140.982,0,256.927-109.287,265.628-249.292
		c0-0.977,0.977-2.841,0.977-4.794V395.956c0-1.953,0-2.841,0-4.794v-72.888C664.776,292.439,643.735,270.333,616.835,270.333z
		 M629.353,393.115c0,0.977,0,0.977,0,1.953v140.005c0,0.977,0,1.953,0,2.841c-5.771,122.693-107.423,218.575-230.116,218.575
		c-127.487,0-230.116-103.517-230.116-230.116v-2.841v-1.953v-253.11c6.747,0.977,15.359,3.818,22.994,8.612
		c0,0,0.977,0,0.977,0.977l0,0l5.771,3.818c10.565,7.635,27.788,23.97,32.582,46.964c0,0,0,0,0,0.977v133.258
		c0,9.588,7.635,17.223,17.223,17.223s17.223-7.635,17.223-17.223V330.792c0-0.977,0-1.953,0-3.817V124.646c0-0.977,0-0.977,0-1.953
		v-0.977V48.829c0-6.747,5.771-12.429,12.429-12.429h40.306c6.747,0,12.429,5.771,12.429,12.429v198.51v11.541V400.75
		c0,9.588,7.635,17.223,17.223,17.223c9.588,0,17.223-7.635,17.223-17.223V257.904c0-6.747,5.771-12.429,12.429-12.429h40.306
		c5.771,0,10.565,4.794,11.541,10.565v143.822c0,9.588,7.635,17.223,17.223,17.223c9.588,0,17.223-7.635,17.223-17.223V260.745
		c0-0.977,0-1.953,0-3.818c0-6.747,5.771-12.429,12.429-12.429h40.306c5.771,0,10.565,3.817,11.541,9.588c0,0.977,0,1.953,0,1.953
		v163.887c0,9.588,7.635,17.223,17.223,17.223c9.588,0,17.223-7.635,17.223-17.223V316.409v-0.977
		c0.977-5.771,5.771-9.588,11.541-9.588h40.306c6.747,0,12.429,5.771,12.429,12.429v72.888l17.223,1.953H629.353z"/>
</g>
<g>
</g>
<g>
</g>
<g>
</g>
<g>
</g>
<g>
</g>
<g>
</g>
<g>
</g>
<g>
</g>
<g>
</g>
<g>
</g>
<g>
</g>
<g>
</g>
<g>
</g>
<g>
</g>
<g>
</g>
</svg>
