<?xml version="1.0" encoding="iso-8859-1"?>
<!-- Generator: Adobe Illustrator 19.0.0, SVG Export Plug-In . SVG Version: 6.00 Build 0)  -->
<svg version="1.1" id="Layer_1" xmlns="http://www.w3.org/2000/svg" xmlns:xlink="http://www.w3.org/1999/xlink" x="0px" y="0px"
	 viewBox="0 0 512 512" style="enable-background:new 0 0 512 512;" xml:space="preserve">
<g>
	<g>
		<path d="M367.266,321.395c23.906-33.266,38-74.055,38-118.141c0-111.914-90.719-202.633-202.633-202.633S0,91.34,0,203.246
			C0,315.16,90.719,405.879,202.633,405.879c44.727,0,86.055-14.5,119.57-39.031L466.75,511.379l45.25-45.25L367.266,321.395z
			 M273.188,370.317c-22.329,9.437-46.071,14.234-70.555,14.234s-48.227-4.797-70.563-14.234
			c-21.586-9.125-40.977-22.219-57.633-38.875c-16.664-16.656-29.734-36.031-38.867-57.625
			c-9.445-22.336-14.242-46.078-14.242-70.57c0-24.477,4.797-48.219,14.242-70.563c9.133-21.586,22.203-40.977,38.859-57.633
			c16.664-16.656,36.055-29.727,57.641-38.859c22.336-9.445,46.078-14.242,70.563-14.242c24.485,0,48.227,4.797,70.555,14.242
			c21.594,9.133,40.984,22.203,57.641,38.859s29.734,36.047,38.859,57.633c9.453,22.344,14.25,46.086,14.25,70.57
			s-4.797,48.227-14.25,70.563c-9.125,21.594-22.203,40.969-38.859,57.625S294.782,361.192,273.188,370.317z M338.813,353.285
			c5.281-4.781,10.281-9.844,15.015-15.156l128.016,128l-15.094,15.094L338.813,353.285z"/>
	</g>
</g>
<g>
	<g>
		<g>
			<path d="M288.095,311.568c-0.003-0.016-0.008-0.048-0.014-0.078h-0.017L288.095,311.568z"/>
			<path d="M106.482,148.301c0.003,0.018,0.008,0.049,0.015,0.086h0.001L106.482,148.301z"/>
			<path d="M319.953,213.941h-32.297c0.156-3.516,0.25-7.07,0.25-10.664c0-3.266-0.094-6.445-0.25-9.539
				c27.594-13.242,32-40.992,32.188-42.234l-0.016-0.008c0.078-0.508,0.125-1.023,0.125-1.555c0-5.891-4.766-10.664-10.672-10.664
				c-5.344,0-9.781,3.961-10.531,9.109c-0.031,0.156-2.125,13.289-14.063,22.297c-5.906-27.117-19.805-45.367-40.344-55.07
				l20.867-34.852l-0.016-0.008c0.961-1.602,1.523-3.469,1.523-5.477c0-5.891-4.773-10.664-10.664-10.664
				c-3.883,0-7.273,2.086-9.141,5.195l-0.008-0.008l-23.492,39.25c-6.5-1.18-13.438-1.773-20.781-1.773
				c-7.32,0-14.219,0.586-20.695,1.758L158.452,69.8l-0.008,0.008c-1.867-3.109-5.258-5.195-9.141-5.195
				c-5.891,0-10.672,4.781-10.672,10.672c0,2,0.563,3.867,1.523,5.469l-0.008,0.008l20.844,34.813
				c-20.586,9.703-34.508,27.961-40.422,55.117c-11.381-8.608-13.844-21.017-14.071-22.305h-0.007
				c-0.758-5.148-5.18-9.109-10.539-9.109c-5.891,0-10.672,4.773-10.672,10.664c0,0.531,0.055,1.047,0.125,1.555l-0.008,0.008
				c0.18,1.242,4.602,29,32.211,42.25c-0.164,3.086-0.242,6.258-0.242,9.523c0,3.594,0.078,7.148,0.227,10.664H85.305
				c-5.891,0-10.664,4.773-10.664,10.664c0,5.891,4.773,10.664,10.664,10.664h34.266c1.641,11.203,4.219,21.727,7.82,31.297
				c-26.805,13.406-31.125,40.578-31.305,41.813h0.016c-0.078,0.5-0.133,1.031-0.133,1.563c0,5.875,4.781,10.656,10.672,10.656
				c5.359,0,9.781-3.969,10.539-9.109h0.008c0.031-0.172,2.742-17.203,19.641-25.766c13.695,21.531,35.102,34.875,65.805,34.875
				c30.695,0,52.109-13.344,65.797-34.875c16.238,8.245,19.407,24.388,19.65,25.766h0.014c0.75,5.141,5.172,9.109,10.531,9.109
				c5.891,0,10.656-4.781,10.656-10.656c0-0.531-0.031-1.063-0.125-1.563h0.016c-0.172-1.234-4.5-28.406-31.297-41.813
				c3.594-9.57,6.188-20.094,7.813-31.297h34.266c5.891,0,10.672-4.773,10.672-10.664
				C330.627,218.715,325.844,213.941,319.953,213.941z M191.969,298.52c-15.946-2.329-28.078-10.204-36.891-23.86
				c-10.719-16.602-16.383-41.289-16.383-71.383c0-7.703,0.5-14.813,1.477-21.336h51.797V298.52z M145.984,160.606
				c2.547-5.906,5.758-10.984,9.625-15.188c10.258-11.148,26.079-16.805,47.024-16.805s36.766,5.656,47.023,16.805
				c3.867,4.203,7.078,9.281,9.625,15.188H145.984z M250.18,274.66c-8.813,13.656-20.945,21.531-36.883,23.859V181.941h51.797
				c0.977,6.523,1.477,13.633,1.477,21.336C266.57,233.371,260.898,258.059,250.18,274.66z"/>
		</g>
	</g>
</g>
<g>
</g>
<g>
</g>
<g>
</g>
<g>
</g>
<g>
</g>
<g>
</g>
<g>
</g>
<g>
</g>
<g>
</g>
<g>
</g>
<g>
</g>
<g>
</g>
<g>
</g>
<g>
</g>
<g>
</g>
</svg>
