<?xml version="1.0" encoding="iso-8859-1"?>
<!-- Generator: Adobe Illustrator 19.0.0, SVG Export Plug-In . SVG Version: 6.00 Build 0)  -->
<svg version="1.1" id="Capa_1" xmlns="http://www.w3.org/2000/svg" xmlns:xlink="http://www.w3.org/1999/xlink" x="0px" y="0px"
	 viewBox="0 0 490.8 490.8" style="enable-background:new 0 0 490.8 490.8;" xml:space="preserve">
<g>
	<path d="M364.8,299.5c46.3-75.8,36.9-176.3-28.6-241.9c-76.8-76.8-201.8-76.8-278.6,0s-76.8,201.8,0,278.6
		c65.5,65.5,166,74.9,241.9,28.6L412,477.3c18,18,47.3,18,65.3,0s18-47.3,0-65.3L364.8,299.5z M295.5,295.5
		c-54.4,54.4-142.8,54.4-197.1,0C44,241.1,44,152.7,98.4,98.4c54.4-54.4,142.8-54.4,197.1,0C349.8,152.7,349.8,241.1,295.5,295.5z
		 M128,167.3h138.7v54.6H128V167.3z"/>
</g>
<g>
</g>
<g>
</g>
<g>
</g>
<g>
</g>
<g>
</g>
<g>
</g>
<g>
</g>
<g>
</g>
<g>
</g>
<g>
</g>
<g>
</g>
<g>
</g>
<g>
</g>
<g>
</g>
<g>
</g>
</svg>
